# xmcd
#
# Track frame offsets:
# 150
# 12609
# 25287
# 44789
# 56429
# 66457
# 79925
# 90497
# 101189
# 115750
# 126201
# 137657
#
# Disc length: 1985 seconds
#
#
# Revision: 0
# Processed by: cddbd v1.5.2PL0 Copyright (c) Steve Scherf et al.
# Submitted via: FreeRIP 2.945 
#
DISCID=ac07bf0c
DTITLE=Bill Anderson - Bright Lights And Country Music
DYEAR=1900
DGENRE=Country
TTITLE0=Bright Lights and Country Music
TTITLE1=Wild Side Of Life
TTITLE2=Golden Guitar
TTITLE3=Wine
TTITLE4=How The Other Half Lives
TTITLE5=Mountain Dew
TTITLE6=Truck Drivin' Man
TTITLE7=I'll go down swinging
TTITLE8=Stranger's Story
TTITLE9=Sittin' In An All Nite Cafe'
TTITLE10=Cocktails
TTITLE11=I'm walking the dog
EXTD=
EXTT0=
EXTT1=
EXTT2=
EXTT3=
EXTT4=
EXTT5=
EXTT6=
EXTT7=
EXTT8=
EXTT9=
EXTT10=
EXTT11=
PLAYORDER=
